<?xml version="1.0" encoding="utf-8"?>
<!-- Generator: Adobe Illustrator 24.1.2, SVG Export Plug-In . SVG Version: 6.00 Build 0)  -->
<svg version="1.1" id="レイヤー_1" xmlns="http://www.w3.org/2000/svg" xmlns:xlink="http://www.w3.org/1999/xlink" x="0px"
	 y="0px" viewBox="0 0 500 70" style="enable-background:new 0 0 500 70;" xml:space="preserve">
<style type="text/css">
	.st0{fill:#FFFFFF;}
</style>
<g>
	<path class="st0" d="M56.4,27.9L51.3,31c-3.4-6.1-9-10-16.8-10c-12.7,0-22.7,10.4-22.7,23.3c0,11.3,7.8,19.8,19.3,19.8
		c7.1,0,13.2-3.2,17.7-8.4l4.3,3.6c-5.4,6.6-13.4,10.6-22.5,10.6c-14.9,0-25.3-11-25.3-25.3c0-16.2,13.5-29.3,29.6-29.3
		C44.7,15.2,52.3,20.1,56.4,27.9z"/>
	<path class="st0" d="M64.7,68.9h-6.2l10.6-60h6.2L64.7,68.9z"/>
	<path class="st0" d="M119.8,30.7l-6.7,38.3h-5.8l1-5.2c-3.5,4-8.8,6.1-14.2,6.1c-10.5,0-17.4-8.3-17.4-18.2
		c0-10.2,7.4-21.8,21-21.8c7.3,0,12.3,3.3,14.9,7.5l1.1-6.6H119.8z M110.6,47.9c0-7.9-5.8-12.4-12.6-12.4c-8.6,0-15,7.4-15,15.5
		c0,7.1,4.8,13.1,12.9,13.1C105.6,64.1,110.6,55.2,110.6,47.9z"/>
	<path class="st0" d="M159.9,42.6c0,1.4-0.2,2.6-0.5,4.3l-3.8,22h-6.2l3.9-22.2c0.2-1.3,0.4-2.2,0.4-3.3c0-5.1-3.4-8.1-8.6-8.1
		c-5.7,0-10.4,3.4-11.5,9.6l-4.2,23.9h-6.2l6.6-38.3h5.8l-0.6,3.8c2.9-2.9,6.8-4.7,11.5-4.7C154.7,29.8,159.9,35.1,159.9,42.6z"/>
	<path class="st0" d="M181.5,8.9l-10.6,60h-6.2l10.6-60H181.5z M182.7,48l14.7,21h-7.3l-14.6-21.6l18.6-16.6h8.5L182.7,48z"/>
	<path class="st0" d="M213.4,36.7h-5l4.6-20.6h7.2L213.4,36.7z"/>
	<path class="st0" d="M251,36.6l-4.3,3.5c-2.2-2.9-5.3-4.6-9.3-4.6c-3.6,0-6.6,1.4-6.6,4.6c0,2.3,1.7,3.7,5.4,5.6l3.4,1.8
		c6.2,3.1,9.1,5.8,9.1,10.9c0,7.8-6.9,11.5-14.1,11.5c-7.6,0-12.6-4.1-15.4-8.6l4.5-3.7c2.8,3.6,5.7,6.6,10.9,6.6
		c4.2,0,7.8-2,7.8-5.5c0-2.9-2.4-4.2-6.1-6.1l-3.5-1.8c-5.1-2.6-8.2-5.4-8.2-10.3c0-7,6.1-10.7,13.4-10.7
		C244,29.8,248.2,32.5,251,36.6z"/>
	<path class="st0" d="M363,16.1l-29.5,53.7h-2.2l-9.2-41.7l-24.2,41.7h-2.2L285,16.1h6.5l7.5,40.1l24-41h2.2l9,41L356,16.1H363z"/>
	<path class="st0" d="M398,48.8c0,11.8-10.2,21-21.8,21c-11,0-19.3-8.2-19.3-19c0-11.8,10-21,21.6-21C389.6,29.8,398,38.1,398,48.8z
		 M363.3,50.8c0,7.7,5.5,13.3,13.2,13.3c8.4,0,15.2-6.7,15.2-15.1c0.1-7.7-5.7-13.5-13.4-13.5C370,35.5,363.3,42.4,363.3,50.8z"/>
	<path class="st0" d="M429.3,30.8l-1,5.3c-1.4-0.2-2.6-0.3-3.5-0.3c-5.8,0-11.5,3.5-12.9,11l-3.8,22.2h-6.2l6.7-38.3h5.8l-0.7,4.2
		c3.1-3.2,7.3-4.7,11.5-4.7C426.6,30.2,427.9,30.4,429.3,30.8z"/>
	<path class="st0" d="M446,8.9l-10.6,60h-6.2l10.6-60H446z M447.2,48l14.7,21h-7.3l-14.6-21.6l18.6-16.6h8.5L447.2,48z"/>
	<path class="st0" d="M497,36.6l-4.3,3.5c-2.2-2.9-5.3-4.6-9.3-4.6c-3.6,0-6.6,1.4-6.6,4.6c0,2.3,1.7,3.7,5.4,5.6l3.4,1.8
		c6.2,3.1,9.1,5.8,9.1,10.9c0,7.8-6.9,11.5-14.1,11.5c-7.6,0-12.6-4.1-15.4-8.6l4.5-3.7c2.8,3.6,5.7,6.6,10.9,6.6
		c4.2,0,7.8-2,7.8-5.5c0-2.9-2.4-4.2-6.1-6.1l-3.5-1.8c-5.1-2.6-8.2-5.4-8.2-10.3c0-7,6.1-10.7,13.4-10.7
		C490.1,29.8,494.3,32.5,497,36.6z"/>
</g>
<g>
</g>
<g>
</g>
<g>
</g>
<g>
</g>
<g>
</g>
<g>
</g>
<g>
</g>
<g>
</g>
<g>
</g>
<g>
</g>
<g>
</g>
<g>
</g>
<g>
</g>
<g>
</g>
<g>
</g>
</svg>
